<svg width="1167" height="1167" viewBox="0 0 1167 1167" fill="none" xmlns="http://www.w3.org/2000/svg">
<circle cx="583.5" cy="583.5" r="583.5" fill="#2697E8"/>
<rect x="234" y="235.095" width="698.905" height="698.905" rx="75" fill="white"/>
<rect x="291.332" y="292.427" width="582.876" height="582.876" rx="45" fill="#2697E8"/>
<rect x="317.66" y="246.016" width="219.773" height="46.4117" transform="rotate(34.5613 317.66 246.016)" fill="white"/>
<rect x="521.053" y="250.111" width="219.773" height="46.4117" transform="rotate(34.5613 521.053 250.111)" fill="white"/>
<path d="M640.559 266.418L472.846 408.447L442.852 373.029L599.882 240.048C605.782 235.051 614.616 235.783 619.613 241.684L640.559 266.418Z" fill="white"/>
<rect x="843.951" y="270.513" width="219.773" height="46.4117" transform="rotate(139.74 843.951 270.513)" fill="white"/>
<rect x="494.724" y="473.979" width="304.406" height="58.6971" fill="white"/>
<rect x="336.378" y="473.979" width="117.394" height="58.6971" fill="white"/>
<rect x="494.724" y="587.278" width="304.406" height="58.6971" fill="white"/>
<rect x="640.784" y="700.577" width="158.346" height="58.6971" fill="white"/>
<rect x="336.378" y="587.278" width="117.394" height="58.6971" fill="white"/>
</svg>
